<svg width="24" height="26" viewBox="0 0 24 26" fill="none" xmlns="http://www.w3.org/2000/svg">
<path d="M12 2.09375C8.13 2.09375 5 5.36602 5 9.41193C5 13.7715 9.42 19.7828 11.24 22.0724C11.64 22.5742 12.37 22.5742 12.77 22.0724C14.58 19.7828 19 13.7715 19 9.41193C19 5.36602 15.87 2.09375 12 2.09375ZM12 12.0256C11.337 12.0256 10.7011 11.7502 10.2322 11.2601C9.76339 10.7699 9.5 10.1051 9.5 9.41193C9.5 8.71875 9.76339 8.05396 10.2322 7.56381C10.7011 7.07366 11.337 6.7983 12 6.7983C12.663 6.7983 13.2989 7.07366 13.7678 7.56381C14.2366 8.05396 14.5 8.71875 14.5 9.41193C14.5 10.1051 14.2366 10.7699 13.7678 11.2601C13.2989 11.7502 12.663 12.0256 12 12.0256Z" fill="white"/>
</svg>
