<svg width="36" height="36" viewBox="0 0 36 36" fill="none" xmlns="http://www.w3.org/2000/svg">
<path d="M16.3562 21.3889C14.728 21.3889 13.1001 20.769 11.8606 19.5295C9.38207 17.0509 9.38207 13.0173 11.8606 10.5388C14.3396 8.06019 18.3732 8.0598 20.8517 10.5388C23.3307 13.0173 23.3307 17.0509 20.8517 19.5295C19.6122 20.769 17.984 21.3889 16.3562 21.3889ZM16.3558 9.46707C14.9296 9.46707 13.503 10.0098 12.4172 11.0957C10.2454 13.2674 10.2454 16.8008 12.4172 18.9725C14.5889 21.1443 18.1227 21.1443 20.2944 18.9725C22.4662 16.8008 22.4662 13.2674 20.2944 11.0957C19.2085 10.0102 17.7824 9.46707 16.3558 9.46707Z" fill="#331B3B"/>
<path d="M29.272 25.8632L24.0372 20.6279C23.5591 20.1498 22.8336 20.075 22.2707 20.392L21.1155 19.2368C23.3196 16.7429 23.2361 12.9232 20.8512 10.5388C18.3731 8.0598 14.3391 8.06019 11.8602 10.5388C9.38158 13.0173 9.38158 17.0509 11.8602 19.5295C13.0996 20.7686 14.7275 21.3889 16.3557 21.3889C17.8603 21.3889 19.3609 20.8525 20.5586 19.7941L21.7138 20.9493C21.3967 21.5122 21.4712 22.2373 21.9497 22.7158L27.1849 27.9506C27.4626 28.2287 27.8332 28.3819 28.2283 28.3819C28.6233 28.3819 28.994 28.2287 29.2716 27.9506C29.5497 27.6726 29.7029 27.3019 29.7029 26.9069C29.7029 26.5119 29.5501 26.1408 29.272 25.8632ZM12.4175 18.9725C10.2457 16.8008 10.2457 13.2674 12.4175 11.0957C13.5033 10.0098 14.9295 9.46707 16.3561 9.46707C17.7827 9.46707 19.2088 10.0098 20.2947 11.0957C22.4665 13.2674 22.4665 16.8008 20.2947 18.9725C18.123 21.1443 14.5888 21.1439 12.4175 18.9725ZM28.7151 27.3937C28.4567 27.6521 28.0006 27.6521 27.7419 27.3937L22.5067 22.1585C22.2384 21.8899 22.2384 21.4535 22.5067 21.1849C22.641 21.051 22.817 20.9836 22.9935 20.9836C23.1695 20.9836 23.346 21.0506 23.4799 21.1849L28.7147 26.4201C28.8439 26.5493 28.9152 26.7222 28.9152 26.9065C28.9152 27.0908 28.8443 27.2641 28.7151 27.3937Z" fill="#331B3B"/>
<path d="M12.2342 17.2925C12.1149 17.2925 11.9971 17.2385 11.9199 17.1365C11.7888 16.9632 11.8226 16.7159 11.9963 16.5847L17.6802 12.2829C17.7692 12.216 17.8818 12.1892 17.9913 12.2101C18.1004 12.2309 18.1961 12.2967 18.254 12.3916L20.0142 15.2767L20.6066 14.8513C20.7822 14.7237 21.0288 14.7647 21.1564 14.9415C21.2832 15.1183 21.243 15.3641 21.0662 15.4913L20.1292 16.1644C20.0402 16.2282 19.9279 16.2531 19.8216 16.2306C19.7141 16.2089 19.6203 16.1432 19.5636 16.0498L17.809 13.1738L12.4721 17.2125C12.4004 17.2665 12.3169 17.2925 12.2342 17.2925Z" fill="#331B3B"/>
<path d="M26.5796 21.8603C26.7974 21.8603 26.9735 21.6842 26.9735 21.4664V2.23763C26.9735 1.15451 26.0924 0.273438 25.0093 0.273438H8.26067C7.17755 0.273438 6.29688 1.15451 6.29688 2.23763V33.7573C6.29688 34.84 7.17795 35.7211 8.26067 35.7211H25.0089C26.092 35.7211 26.9731 34.84 26.9731 33.7573V28.9722C26.9731 28.7544 26.797 28.5784 26.5792 28.5784C26.3614 28.5784 26.1854 28.7544 26.1854 28.9722V29.9904H7.0846V18.308L8.1047 19.9776C8.1626 20.0725 8.25831 20.1383 8.36741 20.1592C8.39183 20.1639 8.41625 20.1663 8.44067 20.1663C8.52574 20.1663 8.60924 20.1387 8.67856 20.0867L9.92711 19.1422C10.1004 19.0107 10.1347 18.7637 10.0035 18.5904C9.87196 18.4171 9.62501 18.3828 9.45171 18.514L8.55016 19.1962L7.0846 16.7975V4.79183H26.1857V10.8471L23.348 12.8861C23.1711 13.0129 23.1306 13.2591 23.2578 13.4359C23.3346 13.5431 23.4555 13.6002 23.578 13.6002C23.6575 13.6002 23.7379 13.5761 23.8072 13.5261L26.1857 11.8172V21.4668C26.1857 21.6838 26.3618 21.8603 26.5796 21.8603ZM26.1857 30.7781V33.7569C26.1857 34.4052 25.658 34.9329 25.0093 34.9329H8.26067C7.61238 34.9329 7.0846 34.4052 7.0846 33.7569V30.7781H26.1857ZM7.0846 4.0041V2.23763C7.0846 1.58894 7.61238 1.06116 8.26067 1.06116H25.0089C25.6576 1.06116 26.1854 1.58894 26.1854 2.23763V4.0041H7.0846Z" fill="#331B3B"/>
<path d="M16.6349 34.2742C15.8638 34.2742 15.2363 33.6467 15.2363 32.8756C15.2363 32.1044 15.8638 31.4766 16.6349 31.4766C17.4061 31.4766 18.0335 32.1044 18.0335 32.8756C18.0335 33.6467 17.4061 34.2742 16.6349 34.2742ZM16.6349 32.2647C16.2982 32.2647 16.0241 32.5388 16.0241 32.876C16.0241 33.2131 16.2982 33.4868 16.6349 33.4868C16.9717 33.4868 17.2458 33.2131 17.2458 32.876C17.2458 32.5388 16.9721 32.2647 16.6349 32.2647Z" fill="#331B3B"/>
<path d="M19.032 2.8971H14.2379C14.0204 2.8971 13.844 2.72065 13.844 2.50324C13.844 2.28583 14.0204 2.10938 14.2379 2.10938H19.032C19.2498 2.10938 19.4258 2.28583 19.4258 2.50324C19.4258 2.72065 19.2498 2.8971 19.032 2.8971Z" fill="#331B3B"/>
</svg>
