<svg width="24" height="26" viewBox="0 0 24 26" fill="none" xmlns="http://www.w3.org/2000/svg">
<path d="M20 4.17969H4C2.9 4.17969 2 5.1206 2 6.2706V18.8161C2 19.9661 2.9 20.907 4 20.907H20C21.1 20.907 22 19.9661 22 18.8161V6.2706C22 5.1206 21.1 4.17969 20 4.17969ZM19.6 8.62287L13.06 12.8988C12.41 13.3274 11.59 13.3274 10.94 12.8988L4.4 8.62287C4.29973 8.56402 4.21192 8.48452 4.14189 8.38916C4.07186 8.29381 4.02106 8.18459 3.99258 8.06812C3.96409 7.95165 3.9585 7.83035 3.97616 7.71155C3.99381 7.59276 4.03434 7.47895 4.09528 7.377C4.15623 7.27506 4.23632 7.1871 4.33073 7.11846C4.42513 7.04981 4.53187 7.0019 4.6445 6.97764C4.75712 6.95337 4.87328 6.95324 4.98595 6.97727C5.09863 7.0013 5.20546 7.04897 5.3 7.11741L12 11.4979L18.7 7.11741C18.7945 7.04897 18.9014 7.0013 19.014 6.97727C19.1267 6.95324 19.2429 6.95337 19.3555 6.97764C19.4681 7.0019 19.5749 7.04981 19.6693 7.11846C19.7637 7.1871 19.8438 7.27506 19.9047 7.377C19.9657 7.47895 20.0062 7.59276 20.0238 7.71155C20.0415 7.83035 20.0359 7.95165 20.0074 8.06812C19.9789 8.18459 19.9281 8.29381 19.8581 8.38916C19.7881 8.48452 19.7003 8.56402 19.6 8.62287Z" fill="white"/>
</svg>
