<svg width="30" height="30" viewBox="0 0 30 30" fill="none" xmlns="http://www.w3.org/2000/svg">
<g clip-path="url(#clip0_8_41)">
<path d="M14.9999 29.7734C6.85585 29.7734 0.230103 23.1477 0.230103 15.0036C0.230103 6.8595 6.85585 0.233751 14.9999 0.233751C23.144 0.233751 29.7698 6.8595 29.7698 15.0036C29.7698 23.1477 23.144 29.7734 14.9999 29.7734ZM15.3282 20.307C17.4544 20.3411 19.5156 20.7041 21.3894 21.3566C21.8564 19.5376 22.1292 17.4944 22.1545 15.3318H15.3282V20.307ZM15.3282 20.9634V29.1006C17.8486 28.8751 20.0322 26.0672 21.2158 21.9907C19.4007 21.3533 17.3976 20.9975 15.3282 20.9634ZM14.6717 20.9634C12.602 20.9975 10.5992 21.3533 8.78381 21.991C9.96737 26.0672 12.151 28.8751 14.6717 29.1006V20.9634ZM14.6717 20.307V15.3318H7.84543C7.87071 17.4944 8.14346 19.5376 8.61051 21.3566C10.4843 20.7041 12.5455 20.3411 14.6717 20.307ZM7.189 15.3318H0.894745C0.968923 18.5543 2.12622 21.5125 4.01873 23.8557C5.17078 22.9255 6.51976 22.1581 8.00462 21.5785C7.5054 19.6896 7.21525 17.5716 7.189 15.3318ZM7.189 14.6754C7.21493 12.4356 7.5054 10.3176 8.00462 8.42839C6.52009 7.84875 5.17078 7.08138 4.01906 6.15121C2.12622 8.49469 0.968923 11.4529 0.894745 14.6754H7.189ZM7.84543 14.6754H14.6717V9.70056C12.5455 9.66643 10.4843 9.30309 8.61051 8.65059C8.14346 10.4696 7.87071 12.5127 7.84543 14.6754ZM14.6717 9.04413V0.906601C12.151 1.13209 9.96737 3.94 8.78381 8.01647C10.5992 8.65388 12.6023 9.00966 14.6717 9.04413ZM15.3282 9.04413C17.3976 9.00999 19.4007 8.6542 21.2158 8.0168C20.0322 3.94 17.8489 1.13209 15.3282 0.906601V9.04413ZM15.3282 9.70056V14.6754H22.1545C22.1292 12.5127 21.8564 10.4696 21.3894 8.65059C19.5156 9.30309 17.4544 9.66643 15.3282 9.70056ZM22.8106 14.6754H29.1051C29.031 11.4529 27.8737 8.49469 25.9808 6.15121C24.8288 7.08138 23.4798 7.84908 21.9949 8.42839C22.4942 10.3179 22.7846 12.4356 22.8106 14.6754ZM22.8106 15.3318C22.7846 17.5716 22.4942 19.6892 21.9949 21.5785C23.4798 22.1581 24.8288 22.9255 25.9808 23.8557C27.8737 21.5122 29.0306 18.5539 29.1048 15.3318H22.8106ZM25.5564 24.3565C24.4746 23.4851 23.209 22.764 21.8167 22.2139C20.9144 25.2493 19.4621 27.6249 17.716 28.8521C20.8088 28.2466 23.5418 26.6278 25.5564 24.3565ZM12.2839 28.8521C10.5378 27.6249 9.08544 25.2493 8.18317 22.2142C6.79087 22.7643 5.52526 23.4854 4.44345 24.3568C6.45772 26.6278 9.1908 28.2466 12.2839 28.8521ZM4.44312 5.65067C5.52493 6.52209 6.79021 7.24319 8.18284 7.79329C9.08512 4.75825 10.5375 2.3826 12.2836 1.15539C9.1908 1.76063 6.45773 3.3794 4.44312 5.65067ZM17.716 1.15506C19.4621 2.38227 20.9144 4.75792 21.8167 7.79329C23.2094 7.24319 24.4746 6.52209 25.5564 5.65067C23.5418 3.3794 20.8091 1.76063 17.716 1.15506Z" fill="black"/>
</g>
<defs>
<clipPath id="clip0_8_41">
<rect width="30" height="30" fill="white" transform="matrix(1 0 0 -1 0 30)"/>
</clipPath>
</defs>
</svg>
