<svg width="24" height="24" viewBox="0 0 24 24" fill="none" xmlns="http://www.w3.org/2000/svg">
<g clip-path="url(#clip0_8_28)">
<path d="M12 2.32344C15.1546 2.32344 15.525 2.3375 16.7718 2.39375C17.9249 2.44531 18.5484 2.6375 18.9656 2.80156C19.5187 3.01719 19.9125 3.27031 20.325 3.68281C20.7375 4.09531 20.9953 4.48906 21.2062 5.04219C21.3656 5.45937 21.5625 6.08281 21.614 7.23594C21.6703 8.48281 21.6843 8.85312 21.6843 12.0078C21.6843 15.1625 21.6703 15.5328 21.614 16.7797C21.5625 17.9328 21.3703 18.5562 21.2062 18.9734C20.9906 19.5266 20.7375 19.9203 20.325 20.3328C19.9125 20.7453 19.5187 21.0031 18.9656 21.2141C18.5484 21.3734 17.9249 21.5703 16.7718 21.6219C15.525 21.6781 15.1546 21.6922 12 21.6922C8.84526 21.6922 8.47495 21.6781 7.22808 21.6219C6.07495 21.5703 5.45151 21.3781 5.03433 21.2141C4.4812 20.9984 4.08745 20.7453 3.67495 20.3328C3.26245 19.9203 3.00464 19.5266 2.7937 18.9734C2.63433 18.5562 2.43745 17.9328 2.38589 16.7797C2.32964 15.5328 2.31558 15.1625 2.31558 12.0078C2.31558 8.85312 2.32964 8.48281 2.38589 7.23594C2.43745 6.08281 2.62964 5.45937 2.7937 5.04219C3.00933 4.48906 3.26245 4.09531 3.67495 3.68281C4.08745 3.27031 4.4812 3.0125 5.03433 2.80156C5.45151 2.64219 6.07495 2.44531 7.22808 2.39375C8.47495 2.33281 8.84526 2.32344 12 2.32344ZM12 0.195312C8.7937 0.195312 8.39058 0.209375 7.12964 0.265625C5.87339 0.321875 5.01558 0.523437 4.26558 0.814062C3.48745 1.11406 2.8312 1.52188 2.17495 2.17813C1.5187 2.83438 1.11558 3.49531 0.810889 4.26875C0.520264 5.01875 0.318701 5.87656 0.262451 7.1375C0.206201 8.39375 0.192139 8.79688 0.192139 12.0031C0.192139 15.2094 0.206201 15.6125 0.262451 16.8734C0.318701 18.1297 0.520264 18.9875 0.810889 19.7422C1.11089 20.5203 1.5187 21.1766 2.17495 21.8328C2.8312 22.4891 3.49214 22.8922 4.26558 23.1969C5.01558 23.4875 5.87339 23.6891 7.13433 23.7453C8.39526 23.8016 8.7937 23.8156 12.0046 23.8156C15.2156 23.8156 15.614 23.8016 16.875 23.7453C18.1312 23.6891 18.989 23.4875 19.7437 23.1969C20.5218 22.8969 21.1781 22.4891 21.8343 21.8328C22.4906 21.1766 22.8937 20.5156 23.1984 19.7422C23.489 18.9922 23.6906 18.1344 23.7468 16.8734C23.8031 15.6125 23.8171 15.2141 23.8171 12.0031C23.8171 8.79219 23.8031 8.39375 23.7468 7.13281C23.6906 5.87656 23.489 5.01875 23.1984 4.26406C22.8984 3.48594 22.4906 2.82969 21.8343 2.17344C21.1781 1.51719 20.5171 1.11406 19.7437 0.809375C18.9937 0.51875 18.1359 0.317188 16.875 0.260938C15.6093 0.209375 15.2062 0.195312 12 0.195312Z" fill="#331B3B"/>
<path d="M12 5.9375C8.65308 5.9375 5.93433 8.65156 5.93433 12.0031C5.93433 15.3547 8.65308 18.0687 12 18.0687C15.3468 18.0687 18.0656 15.35 18.0656 12.0031C18.0656 8.65625 15.3468 5.9375 12 5.9375ZM12 15.9406C9.82495 15.9406 8.06245 14.1781 8.06245 12.0031C8.06245 9.82812 9.82495 8.06562 12 8.06562C14.175 8.06562 15.9375 9.82812 15.9375 12.0031C15.9375 14.1781 14.175 15.9406 12 15.9406Z" fill="#331B3B"/>
<path d="M18.3045 7.1125C19.0864 7.1125 19.7202 6.4787 19.7202 5.69687C19.7202 4.91505 19.0864 4.28125 18.3045 4.28125C17.5227 4.28125 16.8889 4.91505 16.8889 5.69687C16.8889 6.4787 17.5227 7.1125 18.3045 7.1125Z" fill="#331B3B"/>
</g>
<defs>
<clipPath id="clip0_8_28">
<rect width="24" height="24" fill="white"/>
</clipPath>
</defs>
</svg>
