<svg width="24" height="26" viewBox="0 0 24 26" fill="none" xmlns="http://www.w3.org/2000/svg">
<path d="M19.23 15.9553L16.69 15.6521C16.3914 15.6154 16.0886 15.65 15.8046 15.7532C15.5206 15.8564 15.2626 16.0256 15.05 16.248L13.21 18.1716C10.3712 16.6622 8.06382 14.2499 6.62004 11.2821L8.47004 9.34798C8.90004 8.89844 9.11004 8.27117 9.04004 7.63344L8.75004 4.99889C8.69335 4.4889 8.45923 4.0185 8.09228 3.67728C7.72532 3.33605 7.25115 3.14783 6.76004 3.14844H5.03004C3.90004 3.14844 2.96004 4.13117 3.03004 5.31253C3.56004 14.2407 10.39 21.3707 18.92 21.9248C20.05 21.998 20.99 21.0153 20.99 19.8339V18.0253C21 16.9693 20.24 16.0807 19.23 15.9553Z" fill="white"/>
</svg>
