<svg width="34" height="34" viewBox="0 0 34 34" fill="none" xmlns="http://www.w3.org/2000/svg">
<path d="M33.7391 21.1603H0.260742V3.70364C0.260742 2.59179 1.16503 1.6875 2.27688 1.6875H31.7229C32.8344 1.6875 33.7391 2.59179 33.7391 3.70364V21.1603ZM1.0047 20.4164H32.9951V3.70364C32.9951 3.00208 32.4245 2.43146 31.7229 2.43146H2.27688C1.57532 2.43146 1.0047 3.00208 1.0047 3.70364V20.4164Z" fill="#331B3B"/>
<path d="M31.7229 25.7795H2.27688C1.16503 25.7795 0.260742 24.8749 0.260742 23.7634V20.4141H33.7391V23.7634C33.7391 24.8749 32.8344 25.7795 31.7229 25.7795ZM1.0047 21.158V23.7634C1.0047 24.4649 1.57532 25.0356 2.27688 25.0356H31.7229C32.4245 25.0356 32.9951 24.4649 32.9951 23.7634V21.158H1.0047Z" fill="#331B3B"/>
<path d="M22.1426 30.3814H11.8573C11.6966 30.3814 11.5542 30.2784 11.5039 30.1255C11.4537 29.9726 11.5077 29.8052 11.6371 29.71C13.0499 28.6726 13.9929 27.0876 14.2242 25.3616C14.2488 25.1771 14.4065 25.0391 14.5929 25.0391H19.4063C19.5927 25.0391 19.7504 25.1767 19.7749 25.3616C20.0063 27.0879 20.9497 28.6726 22.3624 29.71C22.4923 29.8052 22.5458 29.9726 22.4956 30.1255C22.4454 30.2784 22.3037 30.3814 22.1426 30.3814ZM12.8661 29.6375H21.1342C20.0766 28.5959 19.3546 27.243 19.089 25.7827H14.9109C14.6457 27.243 13.9237 28.5959 12.8661 29.6375Z" fill="#331B3B"/>
<path d="M22.9716 32.3226H11.028C10.2885 32.3226 9.68701 31.7211 9.68701 30.9816C9.68701 30.2421 10.2885 29.6406 11.028 29.6406H22.9716C23.7111 29.6406 24.3126 30.2421 24.3126 30.9816C24.3126 31.7211 23.7111 32.3226 22.9716 32.3226ZM11.028 30.3842C10.6988 30.3842 10.431 30.652 10.431 30.9812C10.431 31.3105 10.6988 31.5783 11.028 31.5783H22.9716C23.3012 31.5783 23.5686 31.3105 23.5686 30.9812C23.5686 30.652 23.3008 30.3842 22.9716 30.3842H11.028Z" fill="#331B3B"/>
<path d="M17.6326 23.4705H16.3671C16.1618 23.4705 15.9951 23.3043 15.9951 23.0985C15.9951 22.8928 16.1618 22.7266 16.3671 22.7266H17.6326C17.8383 22.7266 18.0046 22.8928 18.0046 23.0985C18.0046 23.3043 17.8383 23.4705 17.6326 23.4705Z" fill="#331B3B"/>
<path d="M13.7581 15.0445C12.4591 15.0445 12.0849 13.8884 11.784 12.9595C11.476 12.0084 11.2528 11.4255 10.5702 11.4255C10.3649 11.4255 10.1982 11.2588 10.1982 11.0535C10.1982 10.8482 10.3649 10.6815 10.5702 10.6815C11.2528 10.6815 11.4764 10.0986 11.7844 9.14745C12.0853 8.21825 12.4595 7.0625 13.7585 7.0625C13.9638 7.0625 14.1305 7.22915 14.1305 7.43448C14.1305 7.63981 13.9638 7.80646 13.7585 7.80646C13.0372 7.80646 12.8073 8.40312 12.4923 9.3766C12.3022 9.96395 12.082 10.6432 11.6144 11.0535C12.082 11.4638 12.3022 12.143 12.4923 12.7304C12.8073 13.7039 13.0372 14.3005 13.7585 14.3005C13.9638 14.3005 14.1305 14.4672 14.1305 14.6725C14.1305 14.8778 13.9634 15.0445 13.7581 15.0445Z" fill="#331B3B"/>
<path d="M20.2416 15.0445C20.0359 15.0445 19.8696 14.8778 19.8696 14.6725C19.8696 14.4672 20.0359 14.3005 20.2416 14.3005C20.9625 14.3005 21.1928 13.7039 21.5078 12.73C21.6979 12.143 21.9181 11.4634 22.3857 11.0535C21.9178 10.6432 21.6975 9.96395 21.5078 9.37697C21.1924 8.40312 20.9625 7.80646 20.2416 7.80646C20.0359 7.80646 19.8696 7.63981 19.8696 7.43448C19.8696 7.22915 20.0359 7.0625 20.2416 7.0625C21.5406 7.0625 21.9148 8.21862 22.2157 9.14745C22.5237 10.0986 22.7469 10.6815 23.4295 10.6815C23.6352 10.6815 23.8015 10.8482 23.8015 11.0535C23.8015 11.2588 23.6352 11.4255 23.4295 11.4255C22.7469 11.4255 22.5233 12.0084 22.2153 12.9595C21.9148 13.8884 21.5406 15.0445 20.2416 15.0445Z" fill="#331B3B"/>
<path d="M15.5376 15.9051C15.4986 15.9051 15.4588 15.8988 15.4193 15.8858C15.2248 15.8203 15.1195 15.6094 15.185 15.4148L18.1906 6.44896C18.256 6.25442 18.467 6.14952 18.6615 6.21461C18.8564 6.28008 18.9617 6.491 18.8962 6.68554L15.8906 15.6514C15.8382 15.8065 15.6931 15.9051 15.5376 15.9051Z" fill="#331B3B"/>
</svg>
